<svg xmlns="http://www.w3.org/2000/svg" viewBox="0 0 520 900"><defs><linearGradient id="s" x2="0" y2="1"><stop stop-color="#193c3a"/><stop offset="1" stop-color="#07130e"/></linearGradient></defs><rect width="520" height="900" fill="url(#s)"/><circle cx="420" cy="125" r="58" fill="#d8d0a0" opacity=".55"/><path d="M0 420L95 255l75 165 92-205 100 205 76-150 82 150v480H0z" fill="#173525"/><g fill="#0a2117"><path d="M40 700l55-230 55 230zM115 760l75-310 75 310zM270 720l65-280 65 280zM365 770l70-330 70 330z"/></g><path d="M0 720q140-65 270 0t250 0v180H0z" fill="#102719"/><path d="M25 785q130-60 250-15t220-15" fill="none" stroke="#41634a" stroke-width="18" opacity=".45"/></svg>